<svg id="cert" xmlns="http://www.w3.org/2000/svg" viewBox="0 0 300 300"><defs><style>.cls-1{fill:#bcbcbc;}.cls-2{fill:#e8e8e8;}.cls-3{fill:#f7ba4c;}.cls-4{fill:#264362;}.cls-5{fill:#fff;}</style></defs><title>Artboard 1</title><circle class="cls-1" cx="150" cy="150" r="150"/><circle class="cls-2" cx="150" cy="150" r="140.36"/><path class="cls-3" d="M150,280.94a131,131,0,0,0,124.43-90.16H25.57A131,131,0,0,0,150,280.94Z"/><path class="cls-4" d="M270.81,99.44H247.05L219.72,48.35,157.86,99.44h-8.13l42.36-34.95L189.44,59,140.23,99.44h-5.51l52.93-43.5L185,50.47l-59.93,49h-8.55L152.38,70l-2.65-5.47L107,99.44h-5.3l46.25-38-2.65-5.47L92,99.44H84.35l32.51-26.56-2.65-5.47-39.4,32H69.46l43-35.1-2.65-5.48-50,40.58H29.19a131.13,131.13,0,0,0-3.62,91.34H274.43a131.13,131.13,0,0,0-3.62-91.34Z"/><path class="cls-4" d="M74.61,238.53l4.16-5c2.88,2.38,5.9,3.89,9.55,3.89,2.88,0,4.62-1.15,4.62-3v-.09c0-1.78-1.1-2.7-6.45-4.07-6.44-1.65-10.6-3.43-10.6-9.78v-.09c0-5.81,4.66-9.65,11.2-9.65A18.48,18.48,0,0,1,99,214.81l-3.65,5.3c-2.84-2-5.63-3.15-8.32-3.15s-4.12,1.23-4.12,2.79v.09c0,2.1,1.37,2.78,6.91,4.2,6.49,1.69,10.14,4,10.14,9.6v.09c0,6.36-4.84,9.92-11.74,9.92A20.36,20.36,0,0,1,74.61,238.53Z"/><path class="cls-4" d="M113.6,211h6.5l13.71,32.23h-7.36L123.52,236H110l-2.92,7.18H99.89ZM121,229.8l-4.25-10.37-4.25,10.37Z"/><path class="cls-4" d="M136.92,211.2h24.37v6.4H144v6.81h15.27v6.4H144V243.2h-7Z"/><path class="cls-4" d="M162.52,231.08V231c0-7,5-12.75,12.11-12.75,8.19,0,11.94,6.35,11.94,13.3,0,.55,0,1.19-.09,1.83H169.42a5.69,5.69,0,0,0,6,4.8,8,8,0,0,0,6-2.52l4,3.52a12.24,12.24,0,0,1-10,4.58C168,243.75,162.52,238.58,162.52,231.08ZM179.8,229c-.41-3.11-2.24-5.22-5.17-5.22s-4.75,2.06-5.3,5.22Z"/><path class="cls-4" d="M214.74,236.29H199.11l-1.15-5L215.52,211h5.94v19.61h4.3v5.71h-4.3v6.91h-6.72Zm0-5.71v-10l-8.5,10Z"/><path class="cls-4" d="M184.28,216.18v0a5,5,0,0,1,10,0v0a5,5,0,0,1-10,0Zm9.39,0v0a4.34,4.34,0,0,0-4.39-4.41,4.39,4.39,0,0,0-4.42,4.44v0a4.41,4.41,0,1,0,8.81,0Zm-6.45-2.8h2.35a2.24,2.24,0,0,1,1.64.58,1.59,1.59,0,0,1,.44,1.16v0a1.64,1.64,0,0,1-1.15,1.64l1.3,1.9h-1.36L189.31,217h-.92v1.71h-1.17Zm2.34,2.59c.59,0,.9-.32.9-.76v0c0-.5-.35-.77-.93-.77h-1.14V216Z"/><path class="cls-5" d="M69.27,167.67l7.63-9.14c5.28,4.36,10.82,7.13,17.52,7.13,5.28,0,8.47-2.1,8.47-5.54V160c0-3.27-2-5-11.82-7.46-11.82-3-19.45-6.29-19.45-17.94v-.17c0-10.65,8.55-17.69,20.54-17.69a34,34,0,0,1,21.8,7.46l-6.71,9.73c-5.2-3.61-10.31-5.79-15.26-5.79s-7.54,2.27-7.54,5.12v.16c0,3.86,2.51,5.12,12.65,7.72,11.91,3.1,18.62,7.37,18.62,17.6v.17c0,11.65-8.89,18.19-21.55,18.19A37.34,37.34,0,0,1,69.27,167.67Z"/><path class="cls-5" d="M122.84,117.54h22.89c18.44,0,31.18,12.66,31.18,29.17v.17c0,16.51-12.74,29.34-31.18,29.34H122.84Zm12.91,11.65v35.38h10c10.56,0,17.68-7.13,17.68-17.52v-.17c0-10.4-7.12-17.69-17.68-17.69Z"/><path class="cls-5" d="M184.29,117.54h24c14,0,22.47,8.3,22.47,20.29V138c0,13.58-10.56,20.63-23.73,20.63h-9.8v17.6H184.29Zm23.13,29.59c6.46,0,10.23-3.85,10.23-8.88v-.17c0-5.79-4-8.89-10.48-8.89h-10v17.94Z"/></svg>