<?xml version="1.0" encoding="UTF-8"?>
<svg width="70px" height="70px" viewBox="0 0 70 70" version="1.1" xmlns="http://www.w3.org/2000/svg" xmlns:xlink="http://www.w3.org/1999/xlink">
    <!-- Generator: Sketch 44.1 (41455) - http://www.bohemiancoding.com/sketch -->
    <title>certs-02</title>
    <desc>Created with Sketch.</desc>
    <defs></defs>
    <g id="home-page" stroke="none" stroke-width="1" fill="none" fill-rule="evenodd">
        <g id="Home" transform="translate(-561.000000, -1843.000000)" fill-rule="nonzero">
            <g id="certs-02" transform="translate(561.000000, 1843.000000)">
                <circle id="Oval" fill="#B9B9B9" cx="35" cy="34.9263158" r="34.4105263"></circle>
                <circle id="Oval" fill="#E6E5E5" cx="35" cy="34.9263158" r="32.2"></circle>
                <g id="Group" transform="translate(4.421053, 11.052632)">
                    <path d="M30.5789474,53.8631579 C43.9157895,53.8631579 55.1894737,45.1684211 59.0947368,33.1578947 L2.06315789,33.1578947 C5.96842105,45.1684211 17.2421053,53.8631579 30.5789474,53.8631579 Z" id="Shape" fill="#F4B74C"></path>
                    <path d="M58.2842105,12.2315789 L52.8315789,12.2315789 L46.5684211,0.515789474 L32.3473684,12.2315789 L30.5052632,12.2315789 L40.2315789,4.2 L39.6421053,2.94736842 L28.2947368,12.2315789 L27.0421053,12.2315789 L39.2,2.28421053 L38.6105263,1.03157895 L24.8315789,12.2315789 L22.8421053,12.2315789 L31.0947368,5.45263158 L30.5052632,4.2 L20.7052632,12.2315789 L19.5263158,12.2315789 L30.1368421,3.53684211 L29.4736842,2.28421053 L17.2421053,12.2315789 L15.4736842,12.2315789 L22.9157895,6.11578947 L22.3263158,4.86315789 L13.2631579,12.2315789 L12.0105263,12.2315789 L21.8842105,4.2 L21.3684211,2.94736842 L9.87368421,12.2315789 L2.87368421,12.2315789 C1.4,15.7684211 0.515789474,19.7473684 0.515789474,23.8 C0.515789474,27.0421053 1.03157895,30.2105263 1.98947368,33.1578947 L59.0947368,33.1578947 C60.0526316,30.2105263 60.5684211,27.0421053 60.5684211,23.8 C60.5684211,19.7473684 59.7578947,15.8421053 58.2842105,12.2315789 Z" id="Shape" fill="#264363"></path>
                </g>
                <g id="Group" transform="translate(17.684211, 48.631579)" fill="#264363">
                    <g id="Shape">
                        <path d="M0,6.55789474 L0.957894737,5.37894737 C1.62105263,5.89473684 2.28421053,6.26315789 3.16842105,6.26315789 C3.83157895,6.26315789 4.2,5.96842105 4.2,5.6 L4.2,5.6 C4.2,5.15789474 3.97894737,5.01052632 2.72631579,4.64210526 C1.25263158,4.27368421 0.294736842,3.83157895 0.294736842,2.43157895 L0.294736842,2.43157895 C0.294736842,1.10526316 1.4,0.221052632 2.87368421,0.221052632 C3.97894737,0.221052632 4.86315789,0.589473684 5.6,1.17894737 L4.78947368,2.43157895 C4.12631579,1.98947368 3.46315789,1.69473684 2.87368421,1.69473684 C2.28421053,1.69473684 1.91578947,1.98947368 1.91578947,2.35789474 L1.91578947,2.35789474 C1.91578947,2.87368421 2.21052632,3.02105263 3.46315789,3.31578947 C4.93684211,3.68421053 5.82105263,4.27368421 5.82105263,5.52631579 L5.82105263,5.52631579 C5.82105263,7 4.71578947,7.81052632 3.09473684,7.81052632 C1.98947368,7.73684211 0.884210526,7.36842105 0,6.55789474 Z"></path>
                        <path d="M8.98947368,0.221052632 L10.4631579,0.221052632 L13.6315789,7.58947368 L11.9368421,7.58947368 L11.2736842,5.96842105 L8.10526316,5.96842105 L7.44210526,7.58947368 L5.82105263,7.58947368 L8.98947368,0.221052632 Z M10.6842105,4.56842105 L9.65263158,2.21052632 L8.69473684,4.56842105 L10.6842105,4.56842105 Z"></path>
                        <polygon points="14.2947368 0.294736842 19.8947368 0.294736842 19.8947368 1.76842105 15.9157895 1.76842105 15.9157895 3.31578947 19.4526316 3.31578947 19.4526316 4.78947368 15.9157895 4.78947368 15.9157895 7.66315789 14.2947368 7.66315789"></polygon>
                        <path d="M20.1894737,4.86315789 L20.1894737,4.86315789 C20.1894737,3.24210526 21.3684211,1.91578947 22.9894737,1.91578947 C24.8315789,1.91578947 25.7157895,3.38947368 25.7157895,4.93684211 L25.7157895,5.37894737 L21.8105263,5.37894737 C21.9578947,6.11578947 22.4736842,6.48421053 23.2105263,6.48421053 C23.7263158,6.48421053 24.1684211,6.33684211 24.5368421,5.89473684 L25.4210526,6.70526316 C24.9052632,7.36842105 24.1684211,7.73684211 23.1368421,7.73684211 C21.4421053,7.73684211 20.1894737,6.55789474 20.1894737,4.86315789 Z M24.1684211,4.42105263 C24.0947368,3.68421053 23.6526316,3.24210526 22.9894737,3.24210526 C22.3263158,3.24210526 21.8842105,3.68421053 21.7368421,4.42105263 L24.1684211,4.42105263 Z"></path>
                    </g>
                    <path d="M32.1263158,6.04210526 L28.5157895,6.04210526 L28.2210526,4.86315789 L32.2736842,0.221052632 L33.6,0.221052632 L33.6,4.71578947 L34.5578947,4.71578947 L34.5578947,6.04210526 L33.6,6.04210526 L33.6,7.58947368 L32.0526316,7.58947368 L32.0526316,6.04210526 L32.1263158,6.04210526 Z M32.1263158,4.71578947 L32.1263158,2.43157895 L30.2105263,4.71578947 L32.1263158,4.71578947 Z" id="Shape"></path>
                    <path d="M25.2,1.47368421 L25.2,1.47368421 C25.2,0.810526316 25.7157895,0.294736842 26.3789474,0.294736842 C27.0421053,0.294736842 27.4842105,0.810526316 27.4842105,1.4 L27.4842105,1.4 C27.4842105,1.98947368 26.9684211,2.57894737 26.3052632,2.57894737 C25.6421053,2.57894737 25.2,2.06315789 25.2,1.47368421 Z M27.3368421,1.47368421 L27.3368421,1.47368421 C27.3368421,0.884210526 26.8947368,0.442105263 26.3052632,0.442105263 C25.7157895,0.442105263 25.2736842,0.884210526 25.2736842,1.47368421 L25.2736842,1.47368421 C25.2736842,2.06315789 25.7157895,2.50526316 26.3052632,2.50526316 C26.8947368,2.43157895 27.3368421,1.98947368 27.3368421,1.47368421 Z M25.8631579,0.810526316 L26.3789474,0.810526316 C26.5263158,0.810526316 26.6736842,0.884210526 26.7473684,0.957894737 C26.8210526,1.03157895 26.8210526,1.10526316 26.8210526,1.25263158 L26.8210526,1.25263158 C26.8210526,1.47368421 26.7473684,1.54736842 26.5263158,1.62105263 L26.8210526,2.06315789 L26.5263158,2.06315789 L26.2315789,1.69473684 L26.2315789,1.69473684 L26.0105263,1.69473684 L26.0105263,2.06315789 L25.7157895,2.06315789 L25.7157895,0.810526316 L25.8631579,0.810526316 Z M26.3789474,1.4 C26.5263158,1.4 26.6,1.32631579 26.6,1.25263158 L26.6,1.25263158 C26.6,1.10526316 26.5263158,1.10526316 26.3789474,1.10526316 L26.0842105,1.10526316 L26.0842105,1.47368421 L26.3789474,1.47368421 L26.3789474,1.4 Z" id="Shape"></path>
                </g>
                <g id="Group" transform="translate(9.578947, 26.526316)" fill="#FFFFFF">
                    <path d="M0.589473684,0.884210526 L5.82105263,0.884210526 C8.91578947,0.884210526 10.7578947,2.72631579 10.7578947,5.30526316 L10.7578947,5.30526316 C10.7578947,8.25263158 8.47368421,9.8 5.6,9.8 L3.46315789,9.8 L3.46315789,13.6315789 L0.663157895,13.6315789 L0.663157895,0.884210526 L0.589473684,0.884210526 Z M5.6,7.36842105 C7,7.36842105 7.81052632,6.55789474 7.81052632,5.45263158 L7.81052632,5.45263158 C7.81052632,4.2 6.92631579,3.53684211 5.52631579,3.53684211 L3.31578947,3.53684211 L3.31578947,7.36842105 L5.6,7.36842105 Z" id="Shape"></path>
                    <path d="M11.3473684,7.36842105 L11.3473684,7.36842105 C11.3473684,3.68421053 14.2210526,0.663157895 18.2,0.663157895 C22.1789474,0.663157895 24.9789474,3.61052632 24.9789474,7.29473684 L24.9789474,7.29473684 C24.9789474,10.9789474 22.1052632,13.9263158 18.1263158,13.9263158 C14.1473684,13.9263158 11.3473684,10.9789474 11.3473684,7.36842105 Z M22.0315789,7.36842105 L22.0315789,7.36842105 C22.0315789,5.15789474 20.4105263,3.31578947 18.1263158,3.31578947 C15.8421053,3.31578947 14.2947368,5.08421053 14.2947368,7.29473684 L14.2947368,7.29473684 C14.2947368,9.50526316 15.9157895,11.3473684 18.2,11.3473684 C20.4842105,11.3473684 22.0315789,9.50526316 22.0315789,7.36842105 Z" id="Shape"></path>
                    <path d="M26.6,0.884210526 L31.8315789,0.884210526 C34.9263158,0.884210526 36.7684211,2.72631579 36.7684211,5.30526316 L36.7684211,5.30526316 C36.7684211,8.25263158 34.4842105,9.8 31.6105263,9.8 L29.4736842,9.8 L29.4736842,13.6315789 L26.6736842,13.6315789 L26.6736842,0.884210526 L26.6,0.884210526 Z M31.6842105,7.36842105 C33.0842105,7.36842105 33.8947368,6.55789474 33.8947368,5.45263158 L33.8947368,5.45263158 C33.8947368,4.2 33.0105263,3.53684211 31.6105263,3.53684211 L29.4,3.53684211 L29.4,7.36842105 L31.6842105,7.36842105 Z" id="Shape"></path>
                    <polygon id="Shape" points="37.9473684 0.884210526 40.9684211 0.884210526 44.3578947 6.33684211 47.7473684 0.884210526 50.7684211 0.884210526 50.7684211 13.7052632 47.9684211 13.7052632 47.9684211 5.30526316 44.3578947 10.7578947 44.2842105 10.7578947 40.6736842 5.30526316 40.6736842 13.6315789 37.8736842 13.6315789 37.8736842 0.884210526"></polygon>
                </g>
            </g>
        </g>
    </g>
</svg>