<?xml version="1.0" encoding="UTF-8"?>
<svg width="70px" height="70px" viewBox="0 0 70 70" version="1.1" xmlns="http://www.w3.org/2000/svg" xmlns:xlink="http://www.w3.org/1999/xlink">
    <!-- Generator: Sketch 44.1 (41455) - http://www.bohemiancoding.com/sketch -->
    <title>certs-06</title>
    <desc>Created with Sketch.</desc>
    <defs></defs>
    <g id="home-page" stroke="none" stroke-width="1" fill="none" fill-rule="evenodd">
        <g id="Home" transform="translate(-561.000000, -2117.000000)" fill-rule="nonzero">
            <g id="certs-06" transform="translate(561.000000, 2117.000000)">
                <ellipse id="Oval" fill="#B9B9B9" cx="35" cy="35.1489362" rx="34.4105263" ry="34.7765957"></ellipse>
                <ellipse id="Oval" fill="#E6E5E5" cx="35" cy="35.1489362" rx="32.2" ry="32.5425532"></ellipse>
                <g id="Group" transform="translate(4.421053, 11.170213)">
                    <path d="M30.5789474,54.287234 C43.9157895,54.287234 55.1894737,45.5 59.0947368,33.3617021 L2.06315789,33.3617021 C5.96842105,45.5 17.2421053,54.287234 30.5789474,54.287234 Z" id="Shape" fill="#F4B74C"></path>
                    <path d="M58.2842105,12.212766 L52.8315789,12.212766 L46.5684211,0.372340426 L32.3473684,12.212766 L30.5052632,12.212766 L40.2315789,4.09574468 L39.6421053,2.82978723 L28.2947368,12.212766 L27.0421053,12.212766 L39.2,2.15957447 L38.6105263,0.893617021 L24.8315789,12.212766 L22.8421053,12.212766 L31.0947368,5.36170213 L30.5052632,4.09574468 L20.7052632,12.212766 L19.5263158,12.212766 L30.1368421,3.42553191 L29.4736842,2.15957447 L17.2421053,12.212766 L15.4736842,12.212766 L22.9157895,6.03191489 L22.3263158,4.76595745 L13.2631579,12.212766 L12.0105263,12.212766 L21.8842105,4.09574468 L21.3684211,2.82978723 L9.87368421,12.212766 L2.87368421,12.212766 C1.4,15.787234 0.515789474,19.8085106 0.515789474,23.9042553 C0.515789474,27.1808511 1.03157895,30.3829787 1.98947368,33.3617021 L59.0947368,33.3617021 C60.0526316,30.3829787 60.5684211,27.1808511 60.5684211,23.9042553 C60.5684211,19.8085106 59.7578947,15.8617021 58.2842105,12.212766 Z" id="Shape" fill="#264363"></path>
                </g>
                <g id="Group" transform="translate(17.684211, 49.148936)" fill="#264363">
                    <g id="Shape">
                        <path d="M0,6.4787234 L0.957894737,5.28723404 C1.62105263,5.80851064 2.28421053,6.18085106 3.16842105,6.18085106 C3.83157895,6.18085106 4.2,5.88297872 4.2,5.5106383 L4.2,5.5106383 C4.2,5.06382979 3.97894737,4.91489362 2.72631579,4.54255319 C1.25263158,4.17021277 0.294736842,3.72340426 0.294736842,2.30851064 L0.294736842,2.30851064 C0.294736842,0.968085106 1.4,0.0744680851 2.87368421,0.0744680851 C3.97894737,0.0744680851 4.86315789,0.446808511 5.6,1.04255319 L4.78947368,2.23404255 C4.12631579,1.78723404 3.46315789,1.4893617 2.87368421,1.4893617 C2.28421053,1.4893617 1.91578947,1.78723404 1.91578947,2.15957447 L1.91578947,2.15957447 C1.91578947,2.68085106 2.21052632,2.82978723 3.46315789,3.12765957 C4.93684211,3.5 5.82105263,4.09574468 5.82105263,5.36170213 L5.82105263,5.36170213 C5.82105263,6.85106383 4.71578947,7.67021277 3.09473684,7.67021277 C1.98947368,7.67021277 0.884210526,7.29787234 0,6.4787234 Z"></path>
                        <path d="M8.98947368,0.0744680851 L10.4631579,0.0744680851 L13.6315789,7.5212766 L11.9368421,7.5212766 L11.2736842,5.88297872 L8.10526316,5.88297872 L7.44210526,7.5212766 L5.82105263,7.5212766 L8.98947368,0.0744680851 Z M10.6842105,4.46808511 L9.72631579,2.08510638 L8.69473684,4.46808511 L10.6842105,4.46808511 Z"></path>
                        <polygon points="14.2947368 0.14893617 19.8947368 0.14893617 19.8947368 1.63829787 15.9157895 1.63829787 15.9157895 3.20212766 19.4526316 3.20212766 19.4526316 4.69148936 15.9157895 4.69148936 15.9157895 7.59574468 14.2947368 7.59574468"></polygon>
                        <path d="M20.1894737,4.76595745 L20.1894737,4.76595745 C20.1894737,3.12765957 21.3684211,1.78723404 22.9894737,1.78723404 C24.8315789,1.78723404 25.7157895,3.27659574 25.7157895,4.84042553 L25.7157895,5.28723404 L21.8105263,5.28723404 C21.9578947,6.03191489 22.4736842,6.40425532 23.2105263,6.40425532 C23.7263158,6.40425532 24.1684211,6.25531915 24.5368421,5.80851064 L25.4210526,6.62765957 C24.9052632,7.29787234 24.1684211,7.67021277 23.1368421,7.67021277 C21.4421053,7.67021277 20.1894737,6.4787234 20.1894737,4.76595745 Z M24.1684211,4.31914894 C24.0947368,3.57446809 23.6526316,3.12765957 22.9894737,3.12765957 C22.3263158,3.12765957 21.8842105,3.57446809 21.7368421,4.31914894 L24.1684211,4.31914894 Z"></path>
                    </g>
                    <path d="M32.1263158,5.95744681 L28.5157895,5.95744681 L28.2210526,4.76595745 L32.2736842,0.0744680851 L33.6,0.0744680851 L33.6,4.61702128 L34.5578947,4.61702128 L34.5578947,5.95744681 L33.6,5.95744681 L33.6,7.5212766 L32.0526316,7.5212766 L32.0526316,5.95744681 L32.1263158,5.95744681 Z M32.1263158,4.61702128 L32.1263158,2.30851064 L30.2105263,4.61702128 L32.1263158,4.61702128 Z" id="Shape"></path>
                    <path d="M25.2,1.34042553 L25.2,1.34042553 C25.2,0.670212766 25.7157895,0.14893617 26.3789474,0.14893617 C27.0421053,0.14893617 27.4842105,0.670212766 27.4842105,1.26595745 L27.4842105,1.26595745 C27.4842105,1.86170213 26.9684211,2.45744681 26.3052632,2.45744681 C25.6421053,2.45744681 25.2,1.93617021 25.2,1.34042553 Z M27.3368421,1.26595745 L27.3368421,1.26595745 C27.3368421,0.670212766 26.8947368,0.223404255 26.3052632,0.223404255 C25.7157895,0.223404255 25.2736842,0.670212766 25.2736842,1.26595745 L25.2736842,1.26595745 C25.2736842,1.86170213 25.7157895,2.30851064 26.3052632,2.30851064 C26.8947368,2.30851064 27.3368421,1.86170213 27.3368421,1.26595745 Z M25.8631579,0.670212766 L26.3789474,0.670212766 C26.5263158,0.670212766 26.6736842,0.744680851 26.7473684,0.819148936 C26.8210526,0.893617021 26.8210526,0.968085106 26.8210526,1.11702128 L26.8210526,1.11702128 C26.8210526,1.34042553 26.7473684,1.41489362 26.5263158,1.4893617 L26.8210526,1.93617021 L26.5263158,1.93617021 L26.3052632,1.4893617 L26.3052632,1.4893617 L26.0842105,1.4893617 L26.0842105,1.86170213 L25.7894737,1.86170213 L25.7894737,0.670212766 L25.8631579,0.670212766 Z M26.3789474,1.26595745 C26.5263158,1.26595745 26.6,1.19148936 26.6,1.11702128 L26.6,1.11702128 C26.6,0.968085106 26.5263158,0.968085106 26.3789474,0.968085106 L26.0842105,0.968085106 L26.0842105,1.34042553 L26.3789474,1.34042553 L26.3789474,1.26595745 Z" id="Shape"></path>
                </g>
                <g id="Group" transform="translate(10.315789, 26.808511)" fill="#FFFFFF">
                    <path d="M0,11.8404255 L1.69473684,9.82978723 C2.87368421,10.7978723 4.05263158,11.393617 5.52631579,11.393617 C6.70526316,11.393617 7.36842105,10.9468085 7.36842105,10.2021277 L7.36842105,10.2021277 C7.36842105,9.45744681 6.92631579,9.08510638 4.78947368,8.56382979 C2.21052632,7.89361702 0.515789474,7.14893617 0.515789474,4.61702128 L0.515789474,4.61702128 C0.515789474,2.23404255 2.35789474,0.744680851 5.01052632,0.744680851 C6.85263158,0.744680851 8.47368421,1.34042553 9.8,2.38297872 L8.32631579,4.54255319 C7.22105263,3.72340426 6.04210526,3.27659574 5.01052632,3.27659574 C3.90526316,3.27659574 3.38947368,3.79787234 3.38947368,4.39361702 L3.38947368,4.39361702 C3.38947368,5.21276596 3.90526316,5.5106383 6.18947368,6.10638298 C8.76842105,6.77659574 10.2421053,7.74468085 10.2421053,9.9787234 L10.2421053,9.9787234 C10.2421053,12.5851064 8.32631579,14 5.52631579,14 C3.53684211,13.8510638 1.54736842,13.1808511 0,11.8404255 Z" id="Shape"></path>
                    <path d="M16.1368421,0.670212766 L18.7157895,0.670212766 L24.2421053,13.7021277 L21.2947368,13.7021277 L20.1157895,10.7978723 L14.6631579,10.7978723 L13.4842105,13.7021277 L10.6105263,13.7021277 L16.1368421,0.670212766 Z M19.0842105,8.26595745 L17.3894737,4.09574468 L15.6947368,8.26595745 L19.0842105,8.26595745 Z" id="Shape"></path>
                    <path d="M24.3894737,11.8404255 L26.0842105,9.82978723 C27.2631579,10.7978723 28.4421053,11.393617 29.9157895,11.393617 C31.0947368,11.393617 31.7578947,10.9468085 31.7578947,10.2021277 L31.7578947,10.2021277 C31.7578947,9.45744681 31.3157895,9.08510638 29.1789474,8.56382979 C26.6,7.89361702 24.9052632,7.14893617 24.9052632,4.61702128 L24.9052632,4.61702128 C24.9052632,2.23404255 26.7473684,0.744680851 29.4,0.744680851 C31.2421053,0.744680851 32.8631579,1.34042553 34.1894737,2.38297872 L32.7157895,4.54255319 C31.6105263,3.72340426 30.4315789,3.27659574 29.4,3.27659574 C28.3684211,3.27659574 27.7789474,3.79787234 27.7789474,4.39361702 L27.7789474,4.39361702 C27.7789474,5.21276596 28.2947368,5.5106383 30.5789474,6.10638298 C33.1578947,6.77659574 34.6315789,7.74468085 34.6315789,9.9787234 L34.6315789,9.9787234 C34.6315789,12.5851064 32.7157895,14 29.9157895,14 C27.9263158,13.8510638 25.9368421,13.1808511 24.3894737,11.8404255 Z" id="Shape"></path>
                    <polygon id="Shape" points="36.1052632 0.744680851 39.1263158 0.744680851 42.5157895 6.25531915 45.9052632 0.744680851 48.9263158 0.744680851 48.9263158 13.7021277 46.1263158 13.7021277 46.1263158 5.21276596 42.5157895 10.7234043 42.4421053 10.7234043 38.8315789 5.21276596 38.8315789 13.6276596 36.1052632 13.6276596"></polygon>
                </g>
            </g>
        </g>
    </g>
</svg>