<?xml version="1.0" encoding="UTF-8"?>
<svg width="70px" height="70px" viewBox="0 0 70 70" version="1.1" xmlns="http://www.w3.org/2000/svg" xmlns:xlink="http://www.w3.org/1999/xlink">
    <!-- Generator: Sketch 44.1 (41455) - http://www.bohemiancoding.com/sketch -->
    <title>certs-08</title>
    <desc>Created with Sketch.</desc>
    <defs></defs>
    <g id="home-page" stroke="none" stroke-width="1" fill="none" fill-rule="evenodd">
        <g id="Home" transform="translate(-903.000000, -1842.000000)" fill-rule="nonzero">
            <g id="certs-08" transform="translate(903.000000, 1842.000000)">
                <ellipse id="Oval" fill="#B9B9B9" cx="35.2234043" cy="34.9263158" rx="34.7765957" ry="34.4105263"></ellipse>
                <ellipse id="Oval" fill="#E6E5E5" cx="35.2234043" cy="34.9263158" rx="32.5425532" ry="32.2"></ellipse>
                <g id="Group" transform="translate(4.468085, 11.052632)">
                    <path d="M30.7553191,53.8631579 C44.2340426,53.8631579 55.6276596,45.1684211 59.5744681,33.1578947 L1.93617021,33.1578947 C5.95744681,45.1684211 17.3510638,53.8631579 30.7553191,53.8631579 Z" id="Shape" fill="#F4B74C"></path>
                    <path d="M58.7553191,12.2315789 L53.2446809,12.2315789 L46.9148936,0.515789474 L32.6170213,12.2315789 L30.7553191,12.2315789 L40.5851064,4.2 L39.9893617,2.94736842 L28.5212766,12.2315789 L27.2553191,12.2315789 L39.5425532,2.28421053 L38.9468085,1.03157895 L25.0212766,12.2315789 L23.0106383,12.2315789 L31.3510638,5.45263158 L30.7553191,4.2 L20.8510638,12.2315789 L19.6595745,12.2315789 L30.3829787,3.53684211 L29.787234,2.28421053 L17.3510638,12.2315789 L15.5638298,12.2315789 L23.0851064,6.18947368 L22.4893617,4.93684211 L13.3297872,12.3052632 L12.0638298,12.3052632 L22.0425532,4.27368421 L21.4468085,2.94736842 L9.90425532,12.2315789 L2.82978723,12.2315789 C1.34042553,15.7684211 0.446808511,19.7473684 0.446808511,23.8 C0.446808511,27.0421053 0.968085106,30.2105263 1.93617021,33.1578947 L59.6489362,33.1578947 C60.6170213,30.2105263 61.1382979,27.0421053 61.1382979,23.8 C61.1382979,19.7473684 60.3191489,15.8421053 58.7553191,12.2315789 Z" id="Shape" fill="#264363"></path>
                </g>
                <g id="Group" transform="translate(17.127660, 48.631579)" fill="#264363">
                    <g id="Shape">
                        <path d="M0.670212766,6.55789474 L1.63829787,5.37894737 C2.30851064,5.89473684 2.9787234,6.26315789 3.87234043,6.26315789 C4.54255319,6.26315789 4.91489362,5.96842105 4.91489362,5.6 L4.91489362,5.6 C4.91489362,5.15789474 4.69148936,5.01052632 3.42553191,4.64210526 C1.93617021,4.27368421 0.968085106,3.83157895 0.968085106,2.43157895 L0.968085106,2.43157895 C0.968085106,1.10526316 2.08510638,0.221052632 3.57446809,0.221052632 C4.69148936,0.221052632 5.58510638,0.589473684 6.32978723,1.17894737 L5.5106383,2.43157895 C4.84042553,1.98947368 4.17021277,1.69473684 3.57446809,1.69473684 C2.9787234,1.69473684 2.60638298,1.98947368 2.60638298,2.35789474 L2.60638298,2.35789474 C2.60638298,2.87368421 2.90425532,3.02105263 4.17021277,3.31578947 C5.65957447,3.68421053 6.55319149,4.27368421 6.55319149,5.52631579 L6.55319149,5.52631579 C6.55319149,7 5.43617021,7.81052632 3.79787234,7.81052632 C2.68085106,7.73684211 1.56382979,7.36842105 0.670212766,6.55789474 Z"></path>
                        <path d="M9.68085106,0.221052632 L11.1702128,0.221052632 L14.3723404,7.58947368 L12.6595745,7.58947368 L11.9893617,5.96842105 L8.86170213,5.96842105 L8.19148936,7.66315789 L6.55319149,7.66315789 L9.68085106,0.221052632 Z M11.393617,4.56842105 L10.4255319,2.21052632 L9.45744681,4.56842105 L11.393617,4.56842105 Z"></path>
                        <polygon points="15.1170213 0.294736842 20.7765957 0.294736842 20.7765957 1.76842105 16.7553191 1.76842105 16.7553191 3.31578947 20.3297872 3.31578947 20.3297872 4.78947368 16.7553191 4.78947368 16.7553191 7.66315789 15.1170213 7.66315789"></polygon>
                        <path d="M21,4.86315789 L21,4.86315789 C21,3.24210526 22.1914894,1.91578947 23.8297872,1.91578947 C25.6914894,1.91578947 26.5851064,3.38947368 26.5851064,4.93684211 L26.5851064,5.37894737 L22.6382979,5.37894737 C22.787234,6.11578947 23.3085106,6.48421053 24.0531915,6.48421053 C24.5744681,6.48421053 25.0212766,6.33684211 25.393617,5.89473684 L26.287234,6.70526316 C25.7659574,7.36842105 25.0212766,7.73684211 23.9787234,7.73684211 C22.2659574,7.73684211 21,6.55789474 21,4.86315789 Z M25.0212766,4.42105263 C24.9468085,3.68421053 24.5,3.24210526 23.8297872,3.24210526 C23.1595745,3.24210526 22.712766,3.68421053 22.5638298,4.42105263 L25.0212766,4.42105263 Z"></path>
                    </g>
                    <path d="M33.1382979,6.04210526 L29.4893617,6.04210526 L29.1914894,4.86315789 L33.287234,0.221052632 L34.6276596,0.221052632 L34.6276596,4.71578947 L35.5957447,4.71578947 L35.5957447,6.04210526 L34.6276596,6.04210526 L34.6276596,7.58947368 L33.0638298,7.58947368 L33.0638298,6.04210526 L33.1382979,6.04210526 Z M33.1382979,4.71578947 L33.1382979,2.43157895 L31.2021277,4.71578947 L33.1382979,4.71578947 Z" id="Shape"></path>
                    <path d="M26.0638298,1.47368421 L26.0638298,1.47368421 C26.0638298,0.810526316 26.5851064,0.294736842 27.2553191,0.294736842 C27.9255319,0.294736842 28.3723404,0.810526316 28.3723404,1.4 L28.3723404,1.4 C28.3723404,1.98947368 27.8510638,2.57894737 27.1808511,2.57894737 C26.5106383,2.57894737 26.0638298,2.06315789 26.0638298,1.47368421 Z M28.2234043,1.47368421 L28.2234043,1.47368421 C28.2234043,0.884210526 27.7765957,0.442105263 27.1808511,0.442105263 C26.5851064,0.442105263 26.1382979,0.884210526 26.1382979,1.47368421 L26.1382979,1.47368421 C26.1382979,2.06315789 26.5851064,2.50526316 27.1808511,2.50526316 C27.7765957,2.43157895 28.2234043,1.98947368 28.2234043,1.47368421 Z M26.7340426,0.810526316 L27.2553191,0.810526316 C27.4042553,0.810526316 27.5531915,0.884210526 27.6276596,0.957894737 C27.7021277,1.03157895 27.7021277,1.10526316 27.7021277,1.25263158 L27.7021277,1.25263158 C27.7021277,1.47368421 27.6276596,1.54736842 27.4042553,1.62105263 L27.7021277,2.06315789 L27.4042553,2.06315789 L27.106383,1.69473684 L27.106383,1.69473684 L26.8829787,1.69473684 L26.8829787,2.06315789 L26.5851064,2.06315789 L26.5851064,0.810526316 L26.7340426,0.810526316 Z M27.3297872,1.4 C27.4787234,1.4 27.5531915,1.32631579 27.5531915,1.25263158 L27.5531915,1.25263158 C27.5531915,1.10526316 27.4787234,1.10526316 27.3297872,1.10526316 L27.0319149,1.10526316 L27.0319149,1.47368421 L27.3297872,1.47368421 L27.3297872,1.4 Z" id="Shape"></path>
                </g>
                <g id="Group" transform="translate(17.872340, 27.263158)" fill="#FFFFFF">
                    <path d="M0.595744681,0.221052632 L6.77659574,0.221052632 C8.4893617,0.221052632 9.82978723,0.736842105 10.7234043,1.62105263 C11.4680851,2.35789474 11.9148936,3.46315789 11.9148936,4.71578947 L11.9148936,4.78947368 C11.9148936,6.92631579 10.7234043,8.32631579 9.0106383,8.98947368 L12.3617021,13.7789474 L8.86170213,13.7789474 L5.95744681,9.35789474 L5.95744681,9.35789474 L3.64893617,9.35789474 L3.64893617,13.6315789 L0.670212766,13.6315789 L0.670212766,0.221052632 L0.595744681,0.221052632 Z M6.62765957,6.70526316 C8.11702128,6.70526316 8.93617021,5.96842105 8.93617021,4.78947368 L8.93617021,4.71578947 C8.93617021,3.46315789 8.04255319,2.8 6.55319149,2.8 L3.57446809,2.8 L3.57446809,6.63157895 L6.62765957,6.63157895 L6.62765957,6.70526316 Z" id="Shape"></path>
                    <polygon id="Shape" points="16.9042553 2.94736842 12.7340426 2.94736842 12.7340426 0.221052632 23.9787234 0.221052632 23.9787234 2.94736842 19.8085106 2.94736842 19.8085106 13.7052632 16.8297872 13.7052632 16.8297872 2.94736842"></polygon>
                    <polygon id="Shape" points="25.3191489 0.221052632 35.5957447 0.221052632 35.5957447 2.87368421 28.2978723 2.87368421 28.2978723 5.6 34.7021277 5.6 34.7021277 8.25263158 28.2978723 8.25263158 28.2978723 11.0526316 35.6702128 11.0526316 35.6702128 13.7052632 25.3191489 13.7052632"></polygon>
                </g>
            </g>
        </g>
    </g>
</svg>