<svg id="cert" xmlns="http://www.w3.org/2000/svg" viewBox="0 0 90 90"><defs><style>.cls-1{fill:#bcbcbc;}.cls-2{fill:#e8e8e8;}.cls-3{fill:#f7ba4c;}.cls-4{fill:#264362;}.cls-5{fill:#fff;}</style></defs><title>Artboard 1</title><circle class="cls-1" cx="45" cy="45" r="45"/><circle class="cls-2" cx="45" cy="45" r="42.11"/><path class="cls-3" d="M45,84.28a39.29,39.29,0,0,0,37.33-27H7.67A39.29,39.29,0,0,0,45,84.28Z"/><path class="cls-4" d="M81.24,29.83H74.12l-8.2-15.32L47.36,29.83H44.92L57.63,19.35l-.79-1.64L42.07,29.83H40.42l15.88-13-.79-1.64-18,14.69H35L45.71,21l-.79-1.64L32.1,29.83H30.51L44.38,18.42l-.79-1.64-16,13H25.3l9.75-8-.79-1.64L22.44,29.83H20.84L33.73,19.3l-.79-1.64-15,12.17H8.76a39.34,39.34,0,0,0-1.09,27.4H82.33a39.34,39.34,0,0,0-1.09-27.4Z"/><path class="cls-4" d="M22.38,71.56l1.25-1.49a4.4,4.4,0,0,0,2.87,1.17c.86,0,1.39-.34,1.39-.91v0c0-.53-.33-.81-1.93-1.22-1.93-.49-3.18-1-3.18-2.93v0c0-1.74,1.4-2.89,3.36-2.89a5.56,5.56,0,0,1,3.57,1.22L28.59,66a4.5,4.5,0,0,0-2.5-.95c-.81,0-1.23.37-1.23.84v0c0,.63.41.84,2.07,1.26,1.95.51,3,1.21,3,2.88v0c0,1.91-1.45,3-3.52,3A6.11,6.11,0,0,1,22.38,71.56Z"/><path class="cls-4" d="M34.08,63.29H36L40.14,73H37.94l-.88-2.15H33L32.12,73H30Zm2.22,5.65L35,65.83l-1.28,3.11Z"/><path class="cls-4" d="M41.08,63.36h7.31v1.92h-5.2v2h4.58v1.92H43.19V73H41.08Z"/><path class="cls-4" d="M48.76,69.32v0a3.66,3.66,0,0,1,3.63-3.83c2.46,0,3.58,1.91,3.58,4,0,.16,0,.36,0,.55H50.83a1.7,1.7,0,0,0,1.8,1.44,2.41,2.41,0,0,0,1.78-.75l1.19,1.06a3.88,3.88,0,0,1-6.84-2.43Zm5.18-.62a1.58,1.58,0,0,0-1.55-1.56,1.64,1.64,0,0,0-1.59,1.56Z"/><path class="cls-4" d="M64.42,70.89H59.73l-.34-1.49,5.27-6.1h1.78v5.88h1.29v1.71H66.44V73h-2Zm0-1.71v-3l-2.55,3Z"/><path class="cls-5" d="M28.84,50.3l2.29-2.74a8.08,8.08,0,0,0,5.26,2.14c1.58,0,2.54-.63,2.54-1.66V48c0-1-.6-1.48-3.55-2.24-3.55-.91-5.83-1.89-5.83-5.38v-.05c0-3.19,2.57-5.31,6.16-5.31a10.19,10.19,0,0,1,6.54,2.24l-2,2.92a8.26,8.26,0,0,0-4.58-1.74c-1.48,0-2.26.68-2.26,1.53V40c0,1.16.75,1.53,3.8,2.31,3.57.93,5.58,2.21,5.58,5.28v.05c0,3.5-2.67,5.46-6.46,5.46A11.2,11.2,0,0,1,28.84,50.3Z"/><path class="cls-5" d="M50.95,35.14h3.57l7.54,17.73H58L56.4,48.92H49l-1.61,3.95H43.4ZM55,45.5l-2.34-5.71L50.34,45.5Z"/><path class="cls-4" d="M55.28,64.85h0a1.49,1.49,0,0,1,3,0h0a1.49,1.49,0,0,1-3,0Zm2.82,0h0a1.32,1.32,0,1,0-2.64,0h0a1.32,1.32,0,1,0,2.64,0ZM56.16,64h.71a.67.67,0,0,1,.49.17.48.48,0,0,1,.13.35h0a.49.49,0,0,1-.34.49l.39.57h-.41l-.34-.51h-.28v.51h-.35Zm.7.78c.18,0,.27-.09.27-.23h0c0-.15-.11-.23-.28-.23h-.34v.47Z"/></svg>