<?xml version="1.0" encoding="UTF-8"?>
<svg width="70px" height="70px" viewBox="0 0 70 70" version="1.1" xmlns="http://www.w3.org/2000/svg" xmlns:xlink="http://www.w3.org/1999/xlink">
    <!-- Generator: Sketch 44.1 (41455) - http://www.bohemiancoding.com/sketch -->
    <title>certs-05</title>
    <desc>Created with Sketch.</desc>
    <defs></defs>
    <g id="home-page" stroke="none" stroke-width="1" fill="none" fill-rule="evenodd">
        <g id="Home" transform="translate(-562.000000, -1978.000000)" fill-rule="nonzero">
            <g id="certs-05" transform="translate(562.000000, 1978.000000)">
                <ellipse id="Oval" fill="#B9B9B9" cx="35" cy="34.8510638" rx="34.4105263" ry="34.7765957"></ellipse>
                <ellipse id="Oval" fill="#E6E5E5" cx="35" cy="34.8510638" rx="32.2" ry="32.5425532"></ellipse>
                <g id="Group" transform="translate(4.421053, 11.170213)">
                    <path d="M30.5789474,53.9893617 C43.9157895,53.9893617 55.1894737,45.2021277 59.0947368,33.0638298 L2.06315789,33.0638298 C5.96842105,45.2021277 17.2421053,53.9893617 30.5789474,53.9893617 Z" id="Shape" fill="#F4B74C"></path>
                    <path d="M58.2842105,11.9148936 L52.8315789,11.9148936 L46.5684211,0.0744680851 L32.3473684,11.9148936 L30.5052632,11.9148936 L40.2315789,3.79787234 L39.6421053,2.53191489 L28.2947368,11.9148936 L27.0421053,11.9148936 L39.2,1.86170213 L38.6105263,0.595744681 L24.8315789,11.9148936 L22.8421053,11.9148936 L31.0947368,5.06382979 L30.5052632,3.79787234 L20.7052632,11.9148936 L19.5263158,11.9148936 L30.1368421,3.12765957 L29.4736842,1.86170213 L17.2421053,11.9148936 L15.4736842,11.9148936 L22.9157895,5.73404255 L22.3263158,4.46808511 L13.3368421,11.9148936 L12.0842105,11.9148936 L21.9578947,3.79787234 L21.3684211,2.53191489 L9.87368421,11.9148936 L2.87368421,11.9148936 C1.4,15.4893617 0.515789474,19.5106383 0.515789474,23.606383 C0.515789474,26.8829787 1.03157895,30.0851064 1.98947368,33.0638298 L59.0947368,33.0638298 C60.0526316,30.0851064 60.5684211,26.8829787 60.5684211,23.606383 C60.5684211,19.5106383 59.7578947,15.5638298 58.2842105,11.9148936 Z" id="Shape" fill="#264363"></path>
                </g>
                <g id="Group" transform="translate(17.684211, 48.404255)" fill="#264363">
                    <g id="Shape">
                        <path d="M0,6.92553191 L0.957894737,5.73404255 C1.62105263,6.25531915 2.28421053,6.62765957 3.16842105,6.62765957 C3.83157895,6.62765957 4.2,6.32978723 4.2,5.95744681 L4.2,5.95744681 C4.2,5.5106383 3.97894737,5.36170213 2.72631579,4.9893617 C1.25263158,4.61702128 0.294736842,4.17021277 0.294736842,2.75531915 L0.294736842,2.75531915 C0.294736842,1.41489362 1.4,0.521276596 2.87368421,0.521276596 C3.97894737,0.521276596 4.86315789,0.893617021 5.6,1.4893617 L4.78947368,2.75531915 C4.12631579,2.30851064 3.46315789,2.0106383 2.87368421,2.0106383 C2.28421053,2.0106383 1.91578947,2.30851064 1.91578947,2.68085106 L1.91578947,2.68085106 C1.91578947,3.20212766 2.21052632,3.35106383 3.46315789,3.64893617 C4.93684211,4.0212766 5.82105263,4.61702128 5.82105263,5.88297872 L5.82105263,5.88297872 C5.82105263,7.37234043 4.71578947,8.19148936 3.09473684,8.19148936 C1.98947368,8.11702128 0.884210526,7.74468085 0,6.92553191 Z"></path>
                        <path d="M8.98947368,0.521276596 L10.4631579,0.521276596 L13.6315789,7.96808511 L11.9368421,7.96808511 L11.2736842,6.32978723 L8.10526316,6.32978723 L7.44210526,7.96808511 L5.82105263,7.96808511 L8.98947368,0.521276596 Z M10.6842105,4.91489362 L9.72631579,2.53191489 L8.76842105,4.91489362 L10.6842105,4.91489362 Z"></path>
                        <polygon points="14.2947368 0.595744681 19.8947368 0.595744681 19.8947368 2.08510638 15.9157895 2.08510638 15.9157895 3.64893617 19.4526316 3.64893617 19.4526316 5.13829787 15.9157895 5.13829787 15.9157895 8.04255319 14.2947368 8.04255319"></polygon>
                        <path d="M20.1894737,5.21276596 L20.1894737,5.21276596 C20.1894737,3.57446809 21.3684211,2.23404255 22.9894737,2.23404255 C24.8315789,2.23404255 25.7157895,3.72340426 25.7157895,5.28723404 L25.7157895,5.73404255 L21.8105263,5.73404255 C21.9578947,6.4787234 22.4736842,6.85106383 23.2105263,6.85106383 C23.7263158,6.85106383 24.1684211,6.70212766 24.5368421,6.25531915 L25.4210526,7.07446809 C24.9052632,7.74468085 24.1684211,8.11702128 23.1368421,8.11702128 C21.4421053,8.11702128 20.1894737,6.92553191 20.1894737,5.21276596 Z M24.1684211,4.76595745 C24.0947368,4.0212766 23.6526316,3.57446809 22.9894737,3.57446809 C22.3263158,3.57446809 21.8842105,4.0212766 21.7368421,4.76595745 L24.1684211,4.76595745 Z"></path>
                    </g>
                    <path d="M32.1263158,6.40425532 L28.5157895,6.40425532 L28.2210526,5.21276596 L32.2736842,0.521276596 L33.6,0.521276596 L33.6,5.06382979 L34.5578947,5.06382979 L34.5578947,6.40425532 L33.6,6.40425532 L33.6,7.96808511 L32.0526316,7.96808511 L32.0526316,6.40425532 L32.1263158,6.40425532 Z M32.1263158,5.06382979 L32.1263158,2.75531915 L30.2105263,5.06382979 L32.1263158,5.06382979 Z" id="Shape"></path>
                    <path d="M25.2,1.78723404 L25.2,1.78723404 C25.2,1.11702128 25.7157895,0.595744681 26.3789474,0.595744681 C27.0421053,0.595744681 27.4842105,1.11702128 27.4842105,1.71276596 L27.4842105,1.71276596 C27.4842105,2.30851064 26.9684211,2.90425532 26.3052632,2.90425532 C25.6421053,2.90425532 25.2,2.38297872 25.2,1.78723404 Z M27.3368421,1.78723404 L27.3368421,1.78723404 C27.3368421,1.19148936 26.8947368,0.744680851 26.3052632,0.744680851 C25.7157895,0.744680851 25.2736842,1.19148936 25.2736842,1.78723404 L25.2736842,1.78723404 C25.2736842,2.38297872 25.7157895,2.82978723 26.3052632,2.82978723 C26.8947368,2.75531915 27.3368421,2.30851064 27.3368421,1.78723404 Z M25.8631579,1.11702128 L26.3789474,1.11702128 C26.5263158,1.11702128 26.6736842,1.19148936 26.7473684,1.26595745 C26.8210526,1.34042553 26.8210526,1.41489362 26.8210526,1.56382979 L26.8210526,1.56382979 C26.8210526,1.78723404 26.7473684,1.86170213 26.5263158,1.93617021 L26.8210526,2.38297872 L26.5263158,2.38297872 L26.2315789,2.0106383 L26.2315789,2.0106383 L26.0105263,2.0106383 L26.0105263,2.38297872 L25.7157895,2.38297872 L25.7157895,1.11702128 L25.8631579,1.11702128 Z M26.3789474,1.71276596 C26.5263158,1.71276596 26.6,1.63829787 26.6,1.56382979 L26.6,1.56382979 C26.6,1.41489362 26.5263158,1.41489362 26.3789474,1.41489362 L26.0842105,1.41489362 L26.0842105,1.78723404 L26.3789474,1.78723404 L26.3789474,1.71276596 Z" id="Shape"></path>
                </g>
                <g id="Group" transform="translate(16.210526, 26.808511)" fill="#FFFFFF">
                    <path d="M0.221052632,12.1382979 L1.98947368,10.0531915 C3.16842105,11.0957447 4.49473684,11.6914894 6.04210526,11.6914894 C7.22105263,11.6914894 7.95789474,11.1702128 7.95789474,10.4255319 L7.95789474,10.3510638 C7.95789474,9.60638298 7.51578947,9.23404255 5.23157895,8.63829787 C2.50526316,7.96808511 0.736842105,7.14893617 0.736842105,4.46808511 L0.736842105,4.39361702 C0.736842105,1.93617021 2.72631579,0.29787234 5.45263158,0.29787234 C7.44210526,0.29787234 9.06315789,0.893617021 10.4631579,2.0106383 L8.91578947,4.24468085 C7.73684211,3.42553191 6.55789474,2.90425532 5.45263158,2.90425532 C4.34736842,2.90425532 3.68421053,3.5 3.68421053,4.09574468 L3.68421053,4.17021277 C3.68421053,5.06382979 4.27368421,5.36170213 6.55789474,5.95744681 C9.28421053,6.70212766 10.8315789,7.67021277 10.8315789,10.0531915 L10.8315789,10.1276596 C10.8315789,12.8085106 8.76842105,14.3723404 5.89473684,14.3723404 C3.90526316,14.2978723 1.84210526,13.5531915 0.221052632,12.1382979 Z" id="Shape"></path>
                    <path d="M11.5684211,12.1382979 L13.3368421,10.0531915 C14.5157895,11.0957447 15.8421053,11.6914894 17.3894737,11.6914894 C18.5684211,11.6914894 19.3052632,11.1702128 19.3052632,10.4255319 L19.3052632,10.3510638 C19.3052632,9.60638298 18.8631579,9.23404255 16.5789474,8.63829787 C13.8526316,7.96808511 12.0842105,7.14893617 12.0842105,4.46808511 L12.0842105,4.39361702 C12.0842105,1.93617021 14.0736842,0.29787234 16.8,0.29787234 C18.7894737,0.29787234 20.4105263,0.893617021 21.8105263,2.0106383 L20.2631579,4.24468085 C19.0842105,3.42553191 17.9052632,2.90425532 16.8,2.90425532 C15.6947368,2.90425532 15.1052632,3.42553191 15.1052632,4.09574468 L15.1052632,4.17021277 C15.1052632,5.06382979 15.6947368,5.36170213 17.9789474,5.95744681 C20.7052632,6.70212766 22.2526316,7.67021277 22.2526316,10.0531915 L22.2526316,10.1276596 C22.2526316,12.8085106 20.1894737,14.3723404 17.3157895,14.3723404 C15.2526316,14.2978723 13.1894737,13.5531915 11.5684211,12.1382979 Z" id="Shape"></path>
                    <polygon id="Shape" points="23.8736842 0.521276596 27.0421053 0.521276596 30.5789474 6.25531915 34.1157895 0.521276596 37.2842105 0.521276596 37.2842105 14.1489362 34.3368421 14.1489362 34.3368421 5.21276596 30.5789474 11.0212766 30.5052632 11.0212766 26.7473684 5.28723404 26.7473684 14.0744681 23.8736842 14.0744681 23.8736842 0.521276596"></polygon>
                </g>
            </g>
        </g>
    </g>
</svg>